Coordinates
version=1
nRows=5
nColumns=63
inDegrees=yes

Units are S.I. units (second, meters, Newtons, ...)
If the header above contains a line with 'inDegrees', this indicates whether rotational values are in degrees (yes) or radians (no).

endheader
time	pelvis_tilt	pelvis_list	pelvis_rotation	pelvis_tx	pelvis_ty	pelvis_tz	hip_flexion_r	hip_adduction_r	hip_rotation_r	knee_angle_r	knee_angle_r_beta	ankle_angle_r	subtalar_angle_r	mtp_angle_r	hip_flexion_l	hip_adduction_l	hip_rotation_l	knee_angle_l	knee_angle_l_beta	ankle_angle_l	subtalar_angle_l	mtp_angle_l	L5_S1_Flex_Ext	L5_S1_Lat_Bending	L5_S1_axial_rotation	L4_L5_Flex_Ext	L4_L5_Lat_Bending	L4_L5_axial_rotation	L3_L4_Flex_Ext	L3_L4_Lat_Bending	L3_L4_axial_rotation	L2_L3_Flex_Ext	L2_L3_Lat_Bending	L2_L3_axial_rotation	L1_L2_Flex_Ext	L1_L2_Lat_Bending	L1_L2_axial_rotation	L1_T12_Flex_Ext	L1_T12_Lat_Bending	L1_T12_axial_rotation	Abs_r3	Abs_r2	Abs_r1	Abs_t1	Abs_t2	neck_flexion	neck_bending	neck_rotation	arm_flex_r	arm_add_r	arm_rot_r	elbow_flex_r	pro_sup_r	wrist_flex_r	wrist_dev_r	arm_flex_l	arm_add_l	arm_rot_l	elbow_flex_l	pro_sup_l	wrist_flex_l	wrist_dev_l
      0.84745763	      4.76898228	      1.81980408	     94.53184689	      0.26452926	      0.62333399	      0.91029732	     14.56304098	      8.57496764	      4.04647797	     27.63639649	      0.48234611	     33.88927774	    -17.03318219	      0.00000000	     11.21333143	     -5.58322354	     -1.08405097	     23.46505207	      0.40954242	     45.50111466	      3.84009476	      0.00000000	     -0.35909343	      0.61760265	     -1.13125469	     -0.66687241	      0.82141152	     -1.20195811	     -0.58995460	      1.50163907	     -1.20195811	     -0.41040788	      1.50163907	     -0.98984785	     -0.33345416	      1.25941532	     -0.91914444	     -0.20518599	      0.95666650	     -0.84844102	     -2.56496846	      6.98644465	     -6.29169921	      0.00000000	      0.00000000	     -3.82278377	     -6.55615415	     10.46779490	    -49.98869654	    -58.24757305	   -108.94840168	    146.98243232	     82.37036597	      0.29160416	     14.01057018	    -10.56855392	    -50.29629840	    -85.49905822	    147.92971174	     89.40715546	    -16.95768378	      0.83396095
      0.86440678	      4.49501941	      2.00989749	     94.15756436	      0.26539836	      0.62357171	      0.90943749	     14.51318916	      8.33748711	      4.09032714	     27.94106455	      0.48766357	     34.27693875	    -16.69497576	      0.00000000	     11.12579820	     -5.48295686	     -1.75409602	     23.65793678	      0.41290889	     45.96381958	      4.34047250	      0.00000000	     -0.31408414	      0.55094862	     -1.10960450	     -0.58328566	      0.73276167	     -1.17895478	     -0.51600884	      1.33957648	     -1.17895478	     -0.35896677	      1.33957648	     -0.97090393	     -0.29165854	      1.12349443	     -0.90155365	     -0.17946768	      0.85341941	     -0.83220337	     -2.24347163	      6.23244099	     -6.17128733	      0.00000000	      0.00000000	     -4.42391206	     -6.19910930	     10.80234143	    -45.53636255	    -63.90664494	   -111.19366720	    146.06518937	     85.93710101	     -8.10766747	     13.34873521	     -6.96623396	    -53.68735987	    -87.62750847	    148.17519363	     89.47719162	    -12.72315255	      4.07131480
      0.88135593	      4.44334082	      2.36637865	     94.07319717	      0.26543553	      0.62423087	      0.90871107	     14.17840090	      8.24578007	      3.88254944	     27.97346601	      0.48822908	     34.58811283	    -16.19021301	      0.00000000	     10.89280328	     -5.54400684	     -2.15400178	     23.78049681	      0.41504797	     46.42891383	      4.95702374	      0.00000000	     -0.28292491	      0.52265224	     -1.17611633	     -0.52541984	      0.69512747	     -1.24962360	     -0.46481733	      1.27077665	     -1.24962360	     -0.32335488	      1.27077665	     -1.02910179	     -0.26272407	      1.06579244	     -0.95559452	     -0.16166329	      0.80958831	     -0.88208724	     -2.02090432	      5.91234663	     -6.54120617	      0.00000000	      0.00000000	     -4.74270771	     -6.23079311	     11.21562782	    -41.59779077	    -70.73634499	   -112.44943621	    144.60533127	     86.84976425	    -13.16217921	     14.28948713	     -4.56752474	    -56.98797262	    -89.47069800	    148.14258524	     89.49530755	     -9.34850633	      6.15194886
      0.89830508	      4.45575244	      2.73235117	     93.93460255	      0.26503863	      0.62493510	      0.90815725	     13.83875929	      8.25531168	      3.95308716	     28.06446690	      0.48981735	     34.81533706	    -15.84615918	      0.00000000	     10.57740215	     -5.57781372	     -2.25426587	     23.82145459	      0.41576282	     46.73045386	      5.21503187	      0.00000000	     -0.25767925	      0.52376092	     -1.18165138	     -0.47853614	      0.69660203	     -1.25550459	     -0.42334125	      1.27347231	     -1.25550459	     -0.29450162	      1.27347231	     -1.03394496	     -0.23928096	      1.06805328	     -0.96009174	     -0.14723793	      0.81130567	     -0.88623853	     -1.84057715	      5.92488832	     -6.57199046	      0.00000000	      0.00000000	     -4.62121045	     -6.44408406	     11.84031653	    -39.07789687	    -77.47549736	   -114.51781799	    142.79149739	     87.53843018	    -15.21369161	     14.80800633	     -2.99648687	    -60.02517381	    -90.24035723	    147.83901125	     89.47340437	     -9.23889573	      6.57168792
      0.91525424	      5.02106156	      2.91270349	     94.33683817	      0.26283502	      0.62579779	      0.90697082	     13.41570067	      8.62476673	      3.44739911	     27.54323194	      0.48072008	     34.79714592	    -15.30270884	      0.00000000	     10.47365507	     -6.05920455	     -1.98686530	     23.81445235	      0.41564060	     47.03692470	      5.91576841	      0.00000000	     -0.18941591	      0.62584390	     -1.34242938	     -0.35176429	      0.83237239	     -1.42633122	     -0.31119140	      1.52167686	     -1.42633122	     -0.21648344	      1.52167686	     -1.17462571	     -0.17589161	      1.27622088	     -1.09072387	     -0.10823225	      0.96943220	     -1.00682204	     -1.35297890	      7.07967138	     -7.46618949	      0.00000000	      0.00000000	     -4.46946894	     -7.44012782	     13.27769568	    -36.61427412	    -84.68743176	   -114.96170384	    140.89070940	     88.35595272	    -18.65229916	     15.62522666	     -3.67032780	    -62.07778487	    -93.12385378	    147.67314893	     89.38432516	     -9.68732790	      6.32615612
